# Export of UnityEngine.SceneManagement.Scene
# from modified Aaro4130 OBJ Exporter v2.0
mtllib chandra_default.mtl
g Chandra
v 0.406041 -0.2491651 1.245977
v 0.4122949 -0.2536186 1.255099
v 0.4209689 -0.2568787 1.260051
v 0.429739 -0.258072 1.259507
v 0.6756382 -0.258072 1.155922
v 0.6821543 -0.2568787 1.150028
v 0.6846704 -0.2536185 1.140361
v 0.6825123 -0.2491651 1.129514
v 0.5471928 -0.1058829 0.8082786
v 0.5409389 -0.1014295 0.7991567
v 0.5322648 -0.09816929 0.7942044
v 0.5234947 -0.09697599 0.7947486
v 0.2775955 -0.096976 0.898333
v 0.2710794 -0.0981693 0.9042279
v 0.2685633 -0.1014295 0.9138941
v 0.2707214 -0.1058829 0.9247413
v 0.4059159 -0.2499489 1.24568
v 0.2705963 -0.1066668 0.9244444
v 0.2684382 -0.1022133 0.9135972
v 0.2709544 -0.09895312 0.903931
v 0.2774704 -0.09775982 0.8980361
v 0.5233697 -0.09775981 0.7944517
v 0.5321397 -0.09895311 0.7939074
v 0.5408138 -0.1022133 0.7988597
v 0.5470676 -0.1066667 0.8079816
v 0.6823872 -0.2499489 1.129217
v 0.6845453 -0.2544024 1.140064
v 0.6820292 -0.2576625 1.149731
v 0.6755131 -0.2588558 1.155626
v 0.4296139 -0.2588558 1.25921
v 0.4208439 -0.2576626 1.259754
v 0.4121698 -0.2544024 1.254802
v 0.406041 -0.2491651 1.245977
v 0.2707214 -0.1058829 0.9247413
v 0.2705963 -0.1066668 0.9244444
v 0.4059159 -0.2499489 1.24568
v 0.4122949 -0.2536186 1.255099
v 0.406041 -0.2491651 1.245977
v 0.4059159 -0.2499489 1.24568
v 0.4121698 -0.2544024 1.254802
v 0.4209689 -0.2568787 1.260051
v 0.4122949 -0.2536186 1.255099
v 0.4121698 -0.2544024 1.254802
v 0.4208439 -0.2576626 1.259754
v 0.429739 -0.258072 1.259507
v 0.4209689 -0.2568787 1.260051
v 0.4208439 -0.2576626 1.259754
v 0.4296139 -0.2588558 1.25921
v 0.6756382 -0.258072 1.155922
v 0.429739 -0.258072 1.259507
v 0.4296139 -0.2588558 1.25921
v 0.6755131 -0.2588558 1.155626
v 0.6821543 -0.2568787 1.150028
v 0.6756382 -0.258072 1.155922
v 0.6755131 -0.2588558 1.155626
v 0.6820292 -0.2576625 1.149731
v 0.6846704 -0.2536185 1.140361
v 0.6821543 -0.2568787 1.150028
v 0.6820292 -0.2576625 1.149731
v 0.6845453 -0.2544024 1.140064
v 0.6825123 -0.2491651 1.129514
v 0.6846704 -0.2536185 1.140361
v 0.6845453 -0.2544024 1.140064
v 0.6823872 -0.2499489 1.129217
v 0.5471928 -0.1058829 0.8082786
v 0.6825123 -0.2491651 1.129514
v 0.6823872 -0.2499489 1.129217
v 0.5470676 -0.1066667 0.8079816
v 0.5409389 -0.1014295 0.7991567
v 0.5471928 -0.1058829 0.8082786
v 0.5470676 -0.1066667 0.8079816
v 0.5408138 -0.1022133 0.7988597
v 0.5322648 -0.09816929 0.7942044
v 0.5409389 -0.1014295 0.7991567
v 0.5408138 -0.1022133 0.7988597
v 0.5321397 -0.09895311 0.7939074
v 0.5234947 -0.09697599 0.7947486
v 0.5322648 -0.09816929 0.7942044
v 0.5321397 -0.09895311 0.7939074
v 0.5233697 -0.09775981 0.7944517
v 0.2775955 -0.096976 0.898333
v 0.5234947 -0.09697599 0.7947486
v 0.5233697 -0.09775981 0.7944517
v 0.2774704 -0.09775982 0.8980361
v 0.2710794 -0.0981693 0.9042279
v 0.2775955 -0.096976 0.898333
v 0.2774704 -0.09775982 0.8980361
v 0.2709544 -0.09895312 0.903931
v 0.2685633 -0.1014295 0.9138941
v 0.2710794 -0.0981693 0.9042279
v 0.2709544 -0.09895312 0.903931
v 0.2684382 -0.1022133 0.9135972
v 0.2707214 -0.1058829 0.9247413
v 0.2685633 -0.1014295 0.9138941
v 0.2684382 -0.1022133 0.9135972
v 0.2705963 -0.1066668 0.9244444
vn 0.08521226 0.533997 0.2022857
vn 0.08521226 0.533997 0.2022857
vn 0.08521226 0.533997 0.2022857
vn 0.08521226 0.533997 0.2022857
vn 0.08521226 0.533997 0.2022857
vn 0.08521226 0.533997 0.2022857
vn 0.08521226 0.533997 0.2022857
vn 0.08521226 0.533997 0.2022857
vn 0.08521226 0.533997 0.2022857
vn 0.08521226 0.533997 0.2022857
vn 0.08521226 0.533997 0.2022857
vn 0.08521226 0.533997 0.2022857
vn 0.08521226 0.533997 0.2022857
vn 0.08521226 0.533997 0.2022857
vn 0.08521226 0.533997 0.2022857
vn 0.08521226 0.533997 0.2022857
vn -0.08521226 -0.533997 -0.2022857
vn -0.08521226 -0.533997 -0.2022857
vn -0.08521226 -0.533997 -0.2022857
vn -0.08521226 -0.533997 -0.2022857
vn -0.08521226 -0.533997 -0.2022857
vn -0.08521226 -0.533997 -0.2022857
vn -0.08521226 -0.533997 -0.2022857
vn -0.08521226 -0.533997 -0.2022857
vn -0.08521226 -0.533997 -0.2022857
vn -0.08521226 -0.533997 -0.2022857
vn -0.08521226 -0.533997 -0.2022857
vn -0.08521226 -0.533997 -0.2022857
vn -0.08521226 -0.533997 -0.2022857
vn -0.08521226 -0.533997 -0.2022857
vn -0.08521226 -0.533997 -0.2022857
vn -0.08521226 -0.533997 -0.2022857
vn -0.5320694 -2.150797E-08 0.2241328
vn -0.5320694 -2.150797E-08 0.2241328
vn -0.5320694 -2.150797E-08 0.2241328
vn -0.5320694 -2.150797E-08 0.2241328
vn -0.4841169 -0.04091499 0.3119409
vn -0.4841169 -0.04091499 0.3119409
vn -0.4841169 -0.04091499 0.3119409
vn -0.4841169 -0.04091499 0.3119409
vn -0.3144955 -0.1268276 0.4672819
vn -0.3144955 -0.1268276 0.4672819
vn -0.3144955 -0.1268276 0.4672819
vn -0.3144955 -0.1268276 0.4672819
vn 0.005537563 -0.2052992 0.5396193
vn 0.005537563 -0.2052992 0.5396193
vn 0.005537563 -0.2052992 0.5396193
vn 0.005537563 -0.2052992 0.5396193
vn 0.2073026 -0.2195009 0.4921162
vn 0.2073026 -0.2195009 0.4921162
vn 0.2073026 -0.2195009 0.4921162
vn 0.2073026 -0.2195009 0.4921162
vn 0.3822427 -0.2052992 0.3809333
vn 0.3822427 -0.2052992 0.3809333
vn 0.3822427 -0.2052992 0.3809333
vn 0.3822427 -0.2052992 0.3809333
vn 0.5540544 -0.1268276 0.1014076
vn 0.5540544 -0.1268276 0.1014076
vn 0.5540544 -0.1268276 0.1014076
vn 0.5540544 -0.1268276 0.1014076
vn 0.5613993 -0.04091494 -0.12848
vn 0.5613993 -0.04091494 -0.12848
vn 0.5613993 -0.04091494 -0.12848
vn 0.5613993 -0.04091494 -0.12848
vn 0.5320694 2.150797E-08 -0.2241328
vn 0.5320694 2.150797E-08 -0.2241328
vn 0.5320694 2.150797E-08 -0.2241328
vn 0.5320694 2.150797E-08 -0.2241328
vn 0.4841169 0.04091499 -0.3119409
vn 0.4841169 0.04091499 -0.3119409
vn 0.4841169 0.04091499 -0.3119409
vn 0.4841169 0.04091499 -0.3119409
vn 0.3144955 0.1268276 -0.4672819
vn 0.3144955 0.1268276 -0.4672819
vn 0.3144955 0.1268276 -0.4672819
vn 0.3144955 0.1268276 -0.4672819
vn -0.005537563 0.2052992 -0.5396193
vn -0.005537563 0.2052992 -0.5396193
vn -0.005537563 0.2052992 -0.5396193
vn -0.005537563 0.2052992 -0.5396193
vn -0.2073026 0.2195009 -0.4921162
vn -0.2073026 0.2195009 -0.4921162
vn -0.2073026 0.2195009 -0.4921162
vn -0.2073026 0.2195009 -0.4921162
vn -0.3822427 0.2052992 -0.3809333
vn -0.3822427 0.2052992 -0.3809333
vn -0.3822427 0.2052992 -0.3809333
vn -0.3822427 0.2052992 -0.3809333
vn -0.5540544 0.1268276 -0.1014076
vn -0.5540544 0.1268276 -0.1014076
vn -0.5540544 0.1268276 -0.1014076
vn -0.5540544 0.1268276 -0.1014076
vn -0.5613993 0.04091494 0.12848
vn -0.5613993 0.04091494 0.12848
vn -0.5613993 0.04091494 0.12848
vn -0.5613993 0.04091494 0.12848
vt 0.003281 0.05431201
vt 0.010639 0.026607
vt 0.030744 0.006325
vt 0.058208 -0.001099
vt 0.9417921 -0.001099
vt 0.969256 0.006325
vt 0.989361 0.026607
vt 0.9967191 0.05431201
vt 0.9967191 0.945688
vt 0.989361 0.973393
vt 0.969256 0.9936751
vt 0.9417921 1.001099
vt 0.058208 1.001099
vt 0.030744 0.9936751
vt 0.010639 0.973393
vt 0.003281 0.945688
vt 0.992758 0.05853401
vt 0.992758 0.9414661
vt 0.985458 0.968909
vt 0.9655141 0.988999
vt 0.9382691 0.9963521
vt 0.061731 0.9963521
vt 0.034486 0.988999
vt 0.014542 0.968909
vt 0.007242 0.9414661
vt 0.007242 0.05853401
vt 0.014542 0.031091
vt 0.034486 0.011001
vt 0.061731 0.003648
vt 0.9382691 0.003648
vt 0.9655141 0.011001
vt 0.985458 0.031091
vt 0 0.05529
vt 0 0.9447101
vt 0 0.9447101
vt 0 0.05529
vt 0.007407 0.027645
vt 0 0.05529
vt 0 0.05529
vt 0.007407 0.027645
vt 0.027645 0.007407
vt 0.007407 0.027645
vt 0.007407 0.027645
vt 0.027645 0.007407
vt 0.05529 0
vt 0.027645 0.007407
vt 0.027645 0.007407
vt 0.05529 0
vt 0.9447101 0
vt 0.05529 0
vt 0.05529 0
vt 0.9447101 0
vt 0.972355 0.007407
vt 0.9447101 0
vt 0.9447101 0
vt 0.972355 0.007407
vt 0.9925931 0.027645
vt 0.972355 0.007407
vt 0.972355 0.007407
vt 0.9925931 0.027645
vt 1 0.05529
vt 0.9925931 0.027645
vt 0.9925931 0.027645
vt 1 0.05529
vt 1 0.9447101
vt 1 0.05529
vt 1 0.05529
vt 1 0.9447101
vt 0.9925931 0.972355
vt 1 0.9447101
vt 1 0.9447101
vt 0.9925931 0.972355
vt 0.972355 0.9925931
vt 0.9925931 0.972355
vt 0.9925931 0.972355
vt 0.972355 0.9925931
vt 0.9447101 1
vt 0.972355 0.9925931
vt 0.972355 0.9925931
vt 0.9447101 1
vt 0.05529 1
vt 0.9447101 1
vt 0.9447101 1
vt 0.05529 1
vt 0.027645 0.9925931
vt 0.05529 1
vt 0.05529 1
vt 0.027645 0.9925931
vt 0.007407 0.972355
vt 0.027645 0.9925931
vt 0.027645 0.9925931
vt 0.007407 0.972355
vt 0 0.9447101
vt 0.007407 0.972355
vt 0.007407 0.972355
vt 0 0.9447101
usemtl FRONT_VIEW.004 (Instance)
f 1/1/1 15/15/15 16/16/16
f 1/1/1 14/14/14 15/15/15
f 1/1/1 13/13/13 14/14/14
f 1/1/1 12/12/12 13/13/13
f 1/1/1 11/11/11 12/12/12
f 1/1/1 10/10/10 11/11/11
f 1/1/1 9/9/9 10/10/10
f 1/1/1 8/8/8 9/9/9
f 1/1/1 7/7/7 8/8/8
f 1/1/1 6/6/6 7/7/7
f 1/1/1 5/5/5 6/6/6
f 1/1/1 4/4/4 5/5/5
f 1/1/1 3/3/3 4/4/4
f 1/1/1 2/2/2 3/3/3
f 17/17/17 31/31/31 32/32/32
f 17/17/17 30/30/30 31/31/31
f 17/17/17 29/29/29 30/30/30
f 17/17/17 28/28/28 29/29/29
f 17/17/17 27/27/27 28/28/28
f 17/17/17 26/26/26 27/27/27
f 17/17/17 25/25/25 26/26/26
f 17/17/17 24/24/24 25/25/25
f 17/17/17 23/23/23 24/24/24
f 17/17/17 22/22/22 23/23/23
f 17/17/17 21/21/21 22/22/22
f 17/17/17 20/20/20 21/21/21
f 17/17/17 19/19/19 20/20/20
f 17/17/17 18/18/18 19/19/19
f 33/33/33 34/34/34 35/35/35
f 35/35/35 36/36/36 33/33/33
f 37/37/37 38/38/38 39/39/39
f 39/39/39 40/40/40 37/37/37
f 41/41/41 42/42/42 43/43/43
f 43/43/43 44/44/44 41/41/41
f 45/45/45 46/46/46 47/47/47
f 47/47/47 48/48/48 45/45/45
f 49/49/49 50/50/50 51/51/51
f 51/51/51 52/52/52 49/49/49
f 53/53/53 54/54/54 55/55/55
f 55/55/55 56/56/56 53/53/53
f 57/57/57 58/58/58 59/59/59
f 59/59/59 60/60/60 57/57/57
f 61/61/61 62/62/62 63/63/63
f 63/63/63 64/64/64 61/61/61
f 65/65/65 66/66/66 67/67/67
f 67/67/67 68/68/68 65/65/65
f 69/69/69 70/70/70 71/71/71
f 71/71/71 72/72/72 69/69/69
f 73/73/73 74/74/74 75/75/75
f 75/75/75 76/76/76 73/73/73
f 77/77/77 78/78/78 79/79/79
f 79/79/79 80/80/80 77/77/77
f 81/81/81 82/82/82 83/83/83
f 83/83/83 84/84/84 81/81/81
f 85/85/85 86/86/86 87/87/87
f 87/87/87 88/88/88 85/85/85
f 89/89/89 90/90/90 91/91/91
f 91/91/91 92/92/92 89/89/89
f 93/93/93 94/94/94 95/95/95
f 95/95/95 96/96/96 93/93/93
g Chandra.001
v 0.4059159 -0.2499489 1.24568
v 0.4121698 -0.2544024 1.254802
v 0.4208439 -0.2576626 1.259754
v 0.4296139 -0.2588558 1.25921
v 0.6755131 -0.2588558 1.155626
v 0.6820292 -0.2576625 1.149731
v 0.6845453 -0.2544024 1.140064
v 0.6823872 -0.2499489 1.129217
v 0.5470676 -0.1066667 0.8079816
v 0.5408138 -0.1022133 0.7988597
v 0.5321397 -0.09895311 0.7939074
v 0.5233697 -0.09775981 0.7944517
v 0.2774704 -0.09775982 0.8980361
v 0.2709544 -0.09895312 0.903931
v 0.2684382 -0.1022133 0.9135972
v 0.2705963 -0.1066668 0.9244444
v 0.4057908 -0.2507327 1.245383
v 0.2704712 -0.1074506 0.9241475
v 0.2683132 -0.1029971 0.9133002
v 0.2708293 -0.09973694 0.9036341
v 0.2773453 -0.09854364 0.8977391
v 0.5232446 -0.09854363 0.7941548
v 0.5320146 -0.09973693 0.7936105
v 0.5406887 -0.1029971 0.7985628
v 0.5469426 -0.1074506 0.8076847
v 0.6822622 -0.2507327 1.12892
v 0.6844202 -0.2551862 1.139768
v 0.6819041 -0.2584464 1.149434
v 0.6753881 -0.2596397 1.155329
v 0.4294888 -0.2596397 1.258913
v 0.4207188 -0.2584464 1.259457
v 0.4120447 -0.2551862 1.254505
v 0.4059159 -0.2499489 1.24568
v 0.2705963 -0.1066668 0.9244444
v 0.2704712 -0.1074506 0.9241475
v 0.4057908 -0.2507327 1.245383
v 0.4121698 -0.2544024 1.254802
v 0.4059159 -0.2499489 1.24568
v 0.4057908 -0.2507327 1.245383
v 0.4120447 -0.2551862 1.254505
v 0.4208439 -0.2576626 1.259754
v 0.4121698 -0.2544024 1.254802
v 0.4120447 -0.2551862 1.254505
v 0.4207188 -0.2584464 1.259457
v 0.4296139 -0.2588558 1.25921
v 0.4208439 -0.2576626 1.259754
v 0.4207188 -0.2584464 1.259457
v 0.4294888 -0.2596397 1.258913
v 0.6755131 -0.2588558 1.155626
v 0.4296139 -0.2588558 1.25921
v 0.4294888 -0.2596397 1.258913
v 0.6753881 -0.2596397 1.155329
v 0.6820292 -0.2576625 1.149731
v 0.6755131 -0.2588558 1.155626
v 0.6753881 -0.2596397 1.155329
v 0.6819041 -0.2584464 1.149434
v 0.6845453 -0.2544024 1.140064
v 0.6820292 -0.2576625 1.149731
v 0.6819041 -0.2584464 1.149434
v 0.6844202 -0.2551862 1.139768
v 0.6823872 -0.2499489 1.129217
v 0.6845453 -0.2544024 1.140064
v 0.6844202 -0.2551862 1.139768
v 0.6822622 -0.2507327 1.12892
v 0.5470676 -0.1066667 0.8079816
v 0.6823872 -0.2499489 1.129217
v 0.6822622 -0.2507327 1.12892
v 0.5469426 -0.1074506 0.8076847
v 0.5408138 -0.1022133 0.7988597
v 0.5470676 -0.1066667 0.8079816
v 0.5469426 -0.1074506 0.8076847
v 0.5406887 -0.1029971 0.7985628
v 0.5321397 -0.09895311 0.7939074
v 0.5408138 -0.1022133 0.7988597
v 0.5406887 -0.1029971 0.7985628
v 0.5320146 -0.09973693 0.7936105
v 0.5233697 -0.09775981 0.7944517
v 0.5321397 -0.09895311 0.7939074
v 0.5320146 -0.09973693 0.7936105
v 0.5232446 -0.09854363 0.7941548
v 0.2774704 -0.09775982 0.8980361
v 0.5233697 -0.09775981 0.7944517
v 0.5232446 -0.09854363 0.7941548
v 0.2773453 -0.09854364 0.8977391
v 0.2709544 -0.09895312 0.903931
v 0.2774704 -0.09775982 0.8980361
v 0.2773453 -0.09854364 0.8977391
v 0.2708293 -0.09973694 0.9036341
v 0.2684382 -0.1022133 0.9135972
v 0.2709544 -0.09895312 0.903931
v 0.2708293 -0.09973694 0.9036341
v 0.2683132 -0.1029971 0.9133002
v 0.2705963 -0.1066668 0.9244444
v 0.2684382 -0.1022133 0.9135972
v 0.2683132 -0.1029971 0.9133002
v 0.2704712 -0.1074506 0.9241475
vn 0.08521226 0.533997 0.2022857
vn 0.08521226 0.533997 0.2022857
vn 0.08521226 0.533997 0.2022857
vn 0.08521226 0.533997 0.2022857
vn 0.08521226 0.533997 0.2022857
vn 0.08521226 0.533997 0.2022857
vn 0.08521226 0.533997 0.2022857
vn 0.08521226 0.533997 0.2022857
vn 0.08521226 0.533997 0.2022857
vn 0.08521226 0.533997 0.2022857
vn 0.08521226 0.533997 0.2022857
vn 0.08521226 0.533997 0.2022857
vn 0.08521226 0.533997 0.2022857
vn 0.08521226 0.533997 0.2022857
vn 0.08521226 0.533997 0.2022857
vn 0.08521226 0.533997 0.2022857
vn -0.08521226 -0.533997 -0.2022857
vn -0.08521226 -0.533997 -0.2022857
vn -0.08521226 -0.533997 -0.2022857
vn -0.08521226 -0.533997 -0.2022857
vn -0.08521226 -0.533997 -0.2022857
vn -0.08521226 -0.533997 -0.2022857
vn -0.08521226 -0.533997 -0.2022857
vn -0.08521226 -0.533997 -0.2022857
vn -0.08521226 -0.533997 -0.2022857
vn -0.08521226 -0.533997 -0.2022857
vn -0.08521226 -0.533997 -0.2022857
vn -0.08521226 -0.533997 -0.2022857
vn -0.08521226 -0.533997 -0.2022857
vn -0.08521226 -0.533997 -0.2022857
vn -0.08521226 -0.533997 -0.2022857
vn -0.08521226 -0.533997 -0.2022857
vn -0.5320694 -2.150797E-08 0.2241328
vn -0.5320694 -2.150797E-08 0.2241328
vn -0.5320694 -2.150797E-08 0.2241328
vn -0.5320694 -2.150797E-08 0.2241328
vn -0.4841169 -0.04091499 0.3119409
vn -0.4841169 -0.04091499 0.3119409
vn -0.4841169 -0.04091499 0.3119409
vn -0.4841169 -0.04091499 0.3119409
vn -0.3144955 -0.1268276 0.4672819
vn -0.3144955 -0.1268276 0.4672819
vn -0.3144955 -0.1268276 0.4672819
vn -0.3144955 -0.1268276 0.4672819
vn 0.005537563 -0.2052992 0.5396193
vn 0.005537563 -0.2052992 0.5396193
vn 0.005537563 -0.2052992 0.5396193
vn 0.005537563 -0.2052992 0.5396193
vn 0.2073026 -0.2195009 0.4921162
vn 0.2073026 -0.2195009 0.4921162
vn 0.2073026 -0.2195009 0.4921162
vn 0.2073026 -0.2195009 0.4921162
vn 0.3822427 -0.2052992 0.3809333
vn 0.3822427 -0.2052992 0.3809333
vn 0.3822427 -0.2052992 0.3809333
vn 0.3822427 -0.2052992 0.3809333
vn 0.5540544 -0.1268276 0.1014076
vn 0.5540544 -0.1268276 0.1014076
vn 0.5540544 -0.1268276 0.1014076
vn 0.5540544 -0.1268276 0.1014076
vn 0.5613993 -0.04091494 -0.12848
vn 0.5613993 -0.04091494 -0.12848
vn 0.5613993 -0.04091494 -0.12848
vn 0.5613993 -0.04091494 -0.12848
vn 0.5320694 2.150797E-08 -0.2241328
vn 0.5320694 2.150797E-08 -0.2241328
vn 0.5320694 2.150797E-08 -0.2241328
vn 0.5320694 2.150797E-08 -0.2241328
vn 0.4841169 0.04091499 -0.3119409
vn 0.4841169 0.04091499 -0.3119409
vn 0.4841169 0.04091499 -0.3119409
vn 0.4841169 0.04091499 -0.3119409
vn 0.3144955 0.1268276 -0.4672819
vn 0.3144955 0.1268276 -0.4672819
vn 0.3144955 0.1268276 -0.4672819
vn 0.3144955 0.1268276 -0.4672819
vn -0.005537563 0.2052992 -0.5396193
vn -0.005537563 0.2052992 -0.5396193
vn -0.005537563 0.2052992 -0.5396193
vn -0.005537563 0.2052992 -0.5396193
vn -0.2073026 0.2195009 -0.4921162
vn -0.2073026 0.2195009 -0.4921162
vn -0.2073026 0.2195009 -0.4921162
vn -0.2073026 0.2195009 -0.4921162
vn -0.3822427 0.2052992 -0.3809333
vn -0.3822427 0.2052992 -0.3809333
vn -0.3822427 0.2052992 -0.3809333
vn -0.3822427 0.2052992 -0.3809333
vn -0.5540544 0.1268276 -0.1014076
vn -0.5540544 0.1268276 -0.1014076
vn -0.5540544 0.1268276 -0.1014076
vn -0.5540544 0.1268276 -0.1014076
vn -0.5613993 0.04091494 0.12848
vn -0.5613993 0.04091494 0.12848
vn -0.5613993 0.04091494 0.12848
vn -0.5613993 0.04091494 0.12848
vt 0.003281 0.05431201
vt 0.010639 0.026607
vt 0.030744 0.006325
vt 0.058208 -0.001099
vt 0.9417921 -0.001099
vt 0.969256 0.006325
vt 0.989361 0.026607
vt 0.9967191 0.05431201
vt 0.9967191 0.945688
vt 0.989361 0.973393
vt 0.969256 0.9936751
vt 0.9417921 1.001099
vt 0.058208 1.001099
vt 0.030744 0.9936751
vt 0.010639 0.973393
vt 0.003281 0.945688
vt 0.992758 0.05853401
vt 0.992758 0.9414661
vt 0.985458 0.968909
vt 0.9655141 0.988999
vt 0.9382691 0.9963521
vt 0.061731 0.9963521
vt 0.034486 0.988999
vt 0.014542 0.968909
vt 0.007242 0.9414661
vt 0.007242 0.05853401
vt 0.014542 0.031091
vt 0.034486 0.011001
vt 0.061731 0.003648
vt 0.9382691 0.003648
vt 0.9655141 0.011001
vt 0.985458 0.031091
vt 0 0.05529
vt 0 0.9447101
vt 0 0.9447101
vt 0 0.05529
vt 0.007407 0.027645
vt 0 0.05529
vt 0 0.05529
vt 0.007407 0.027645
vt 0.027645 0.007407
vt 0.007407 0.027645
vt 0.007407 0.027645
vt 0.027645 0.007407
vt 0.05529 0
vt 0.027645 0.007407
vt 0.027645 0.007407
vt 0.05529 0
vt 0.9447101 0
vt 0.05529 0
vt 0.05529 0
vt 0.9447101 0
vt 0.972355 0.007407
vt 0.9447101 0
vt 0.9447101 0
vt 0.972355 0.007407
vt 0.9925931 0.027645
vt 0.972355 0.007407
vt 0.972355 0.007407
vt 0.9925931 0.027645
vt 1 0.05529
vt 0.9925931 0.027645
vt 0.9925931 0.027645
vt 1 0.05529
vt 1 0.9447101
vt 1 0.05529
vt 1 0.05529
vt 1 0.9447101
vt 0.9925931 0.972355
vt 1 0.9447101
vt 1 0.9447101
vt 0.9925931 0.972355
vt 0.972355 0.9925931
vt 0.9925931 0.972355
vt 0.9925931 0.972355
vt 0.972355 0.9925931
vt 0.9447101 1
vt 0.972355 0.9925931
vt 0.972355 0.9925931
vt 0.9447101 1
vt 0.05529 1
vt 0.9447101 1
vt 0.9447101 1
vt 0.05529 1
vt 0.027645 0.9925931
vt 0.05529 1
vt 0.05529 1
vt 0.027645 0.9925931
vt 0.007407 0.972355
vt 0.027645 0.9925931
vt 0.027645 0.9925931
vt 0.007407 0.972355
vt 0 0.9447101
vt 0.007407 0.972355
vt 0.007407 0.972355
vt 0 0.9447101
usemtl BACK_VIEW.005 (Instance)
f 97/97/97 111/111/111 112/112/112
f 97/97/97 110/110/110 111/111/111
f 97/97/97 109/109/109 110/110/110
f 97/97/97 108/108/108 109/109/109
f 97/97/97 107/107/107 108/108/108
f 97/97/97 106/106/106 107/107/107
f 97/97/97 105/105/105 106/106/106
f 97/97/97 104/104/104 105/105/105
f 97/97/97 103/103/103 104/104/104
f 97/97/97 102/102/102 103/103/103
f 97/97/97 101/101/101 102/102/102
f 97/97/97 100/100/100 101/101/101
f 97/97/97 99/99/99 100/100/100
f 97/97/97 98/98/98 99/99/99
f 113/113/113 127/127/127 128/128/128
f 113/113/113 126/126/126 127/127/127
f 113/113/113 125/125/125 126/126/126
f 113/113/113 124/124/124 125/125/125
f 113/113/113 123/123/123 124/124/124
f 113/113/113 122/122/122 123/123/123
f 113/113/113 121/121/121 122/122/122
f 113/113/113 120/120/120 121/121/121
f 113/113/113 119/119/119 120/120/120
f 113/113/113 118/118/118 119/119/119
f 113/113/113 117/117/117 118/118/118
f 113/113/113 116/116/116 117/117/117
f 113/113/113 115/115/115 116/116/116
f 113/113/113 114/114/114 115/115/115
f 129/129/129 130/130/130 131/131/131
f 131/131/131 132/132/132 129/129/129
f 133/133/133 134/134/134 135/135/135
f 135/135/135 136/136/136 133/133/133
f 137/137/137 138/138/138 139/139/139
f 139/139/139 140/140/140 137/137/137
f 141/141/141 142/142/142 143/143/143
f 143/143/143 144/144/144 141/141/141
f 145/145/145 146/146/146 147/147/147
f 147/147/147 148/148/148 145/145/145
f 149/149/149 150/150/150 151/151/151
f 151/151/151 152/152/152 149/149/149
f 153/153/153 154/154/154 155/155/155
f 155/155/155 156/156/156 153/153/153
f 157/157/157 158/158/158 159/159/159
f 159/159/159 160/160/160 157/157/157
f 161/161/161 162/162/162 163/163/163
f 163/163/163 164/164/164 161/161/161
f 165/165/165 166/166/166 167/167/167
f 167/167/167 168/168/168 165/165/165
f 169/169/169 170/170/170 171/171/171
f 171/171/171 172/172/172 169/169/169
f 173/173/173 174/174/174 175/175/175
f 175/175/175 176/176/176 173/173/173
f 177/177/177 178/178/178 179/179/179
f 179/179/179 180/180/180 177/177/177
f 181/181/181 182/182/182 183/183/183
f 183/183/183 184/184/184 181/181/181
f 185/185/185 186/186/186 187/187/187
f 187/187/187 188/188/188 185/185/185
f 189/189/189 190/190/190 191/191/191
f 191/191/191 192/192/192 189/189/189
