# Export of MainScene
# from Aaro4130 OBJ Exporter v2.0
mtllib chandra_default.mtl
g Chandra_Plane.004
v -0.5350618 -0.009875455 1.051146
v -0.5271853 -0.008821051 1.069359
v -0.5141912 -0.008049178 1.081072
v -0.4995611 -0.007766648 1.083147
v -0.06561044 -0.007766626 0.9859149
v -0.05326456 -0.008049154 0.9777955
v -0.04651095 -0.008821026 0.9616574
v -0.04715922 -0.009875429 0.9418246
v -0.1842927 -0.04379877 0.3297944
v -0.1921691 -0.04485317 0.3115812
v -0.2051632 -0.04562505 0.2998678
v -0.2197933 -0.04590758 0.2977927
v -0.653744 -0.0459076 0.395025
v -0.6660899 -0.04562507 0.4031445
v -0.6728435 -0.0448532 0.4192826
v -0.6721952 -0.0437988 0.4391154
v -0.5350451 -0.01128581 1.05122
v -0.6721785 -0.04520915 0.4391899
v -0.6728268 -0.04626355 0.4193571
v -0.6660732 -0.04703542 0.4032189
v -0.6537273 -0.04731795 0.3950995
v -0.2197767 -0.04731793 0.2978671
v -0.2051466 -0.0470354 0.2999422
v -0.1921524 -0.04626353 0.3116556
v -0.184276 -0.04520913 0.3298688
v -0.04714255 -0.01128578 0.9418989
v -0.04649428 -0.01023138 0.9617318
v -0.05324787 -0.009459508 0.97787
v -0.06559375 -0.009176978 0.9859895
v -0.4995444 -0.009177 1.083222
v -0.5141745 -0.00945953 1.081147
v -0.5271686 -0.0102314 1.069433
v -0.5350618 -0.009875455 1.051146
v -0.6721952 -0.0437988 0.4391154
v -0.6721785 -0.04520915 0.4391899
v -0.5350451 -0.01128581 1.05122
v -0.5271853 -0.008821051 1.069359
v -0.5350618 -0.009875455 1.051146
v -0.5350451 -0.01128581 1.05122
v -0.5271686 -0.0102314 1.069433
v -0.5141912 -0.008049178 1.081072
v -0.5271853 -0.008821051 1.069359
v -0.5271686 -0.0102314 1.069433
v -0.5141745 -0.00945953 1.081147
v -0.4995611 -0.007766648 1.083147
v -0.5141912 -0.008049178 1.081072
v -0.5141745 -0.00945953 1.081147
v -0.4995444 -0.009177 1.083222
v -0.06561044 -0.007766626 0.9859149
v -0.4995611 -0.007766648 1.083147
v -0.4995444 -0.009177 1.083222
v -0.06559375 -0.009176978 0.9859895
v -0.05326456 -0.008049154 0.9777955
v -0.06561044 -0.007766626 0.9859149
v -0.06559375 -0.009176978 0.9859895
v -0.05324787 -0.009459508 0.97787
v -0.04651095 -0.008821026 0.9616574
v -0.05326456 -0.008049154 0.9777955
v -0.05324787 -0.009459508 0.97787
v -0.04649428 -0.01023138 0.9617318
v -0.04715922 -0.009875429 0.9418246
v -0.04651095 -0.008821026 0.9616574
v -0.04649428 -0.01023138 0.9617318
v -0.04714255 -0.01128578 0.9418989
v -0.1842927 -0.04379877 0.3297944
v -0.04715922 -0.009875429 0.9418246
v -0.04714255 -0.01128578 0.9418989
v -0.184276 -0.04520913 0.3298688
v -0.1921691 -0.04485317 0.3115812
v -0.1842927 -0.04379877 0.3297944
v -0.184276 -0.04520913 0.3298688
v -0.1921524 -0.04626353 0.3116556
v -0.2051632 -0.04562505 0.2998678
v -0.1921691 -0.04485317 0.3115812
v -0.1921524 -0.04626353 0.3116556
v -0.2051466 -0.0470354 0.2999422
v -0.2197933 -0.04590758 0.2977927
v -0.2051632 -0.04562505 0.2998678
v -0.2051466 -0.0470354 0.2999422
v -0.2197767 -0.04731793 0.2978671
v -0.653744 -0.0459076 0.395025
v -0.2197933 -0.04590758 0.2977927
v -0.2197767 -0.04731793 0.2978671
v -0.6537273 -0.04731795 0.3950995
v -0.6660899 -0.04562507 0.4031445
v -0.653744 -0.0459076 0.395025
v -0.6537273 -0.04731795 0.3950995
v -0.6660732 -0.04703542 0.4032189
v -0.6728435 -0.0448532 0.4192826
v -0.6660899 -0.04562507 0.4031445
v -0.6660732 -0.04703542 0.4032189
v -0.6728268 -0.04626355 0.4193571
v -0.6721952 -0.0437988 0.4391154
v -0.6728435 -0.0448532 0.4192826
v -0.6728268 -0.04626355 0.4193571
v -0.6721785 -0.04520915 0.4391899
vn -0.006817568 0.5765076 -0.03042685
vn -0.006817568 0.5765076 -0.03042685
vn -0.006817568 0.5765076 -0.03042685
vn -0.006817568 0.5765076 -0.03042685
vn -0.006817568 0.5765076 -0.03042685
vn -0.006817568 0.5765076 -0.03042685
vn -0.006817568 0.5765076 -0.03042685
vn -0.006817568 0.5765076 -0.03042685
vn -0.006817568 0.5765076 -0.03042685
vn -0.006817568 0.5765076 -0.03042685
vn -0.006817568 0.5765076 -0.03042685
vn -0.006817568 0.5765076 -0.03042685
vn -0.006817568 0.5765076 -0.03042685
vn -0.006817568 0.5765076 -0.03042685
vn -0.006817568 0.5765076 -0.03042685
vn -0.006817568 0.5765076 -0.03042685
vn 0.006817568 -0.5765076 0.03042685
vn 0.006817568 -0.5765076 0.03042685
vn 0.006817568 -0.5765076 0.03042685
vn 0.006817568 -0.5765076 0.03042685
vn 0.006817568 -0.5765076 0.03042685
vn 0.006817568 -0.5765076 0.03042685
vn 0.006817568 -0.5765076 0.03042685
vn 0.006817568 -0.5765076 0.03042685
vn 0.006817568 -0.5765076 0.03042685
vn 0.006817568 -0.5765076 0.03042685
vn 0.006817568 -0.5765076 0.03042685
vn 0.006817568 -0.5765076 0.03042685
vn 0.006817568 -0.5765076 0.03042685
vn 0.006817568 -0.5765076 0.03042685
vn 0.006817568 -0.5765076 0.03042685
vn 0.006817568 -0.5765076 0.03042685
vn -0.5633814 -2.876691E-08 0.126233
vn -0.5633814 -2.876691E-08 0.126233
vn -0.5633814 -2.876691E-08 0.126233
vn -0.5633814 -2.876691E-08 0.126233
vn -0.5300267 0.005812164 0.228885
vn -0.5300267 0.005812164 0.228885
vn -0.5300267 0.005812164 0.228885
vn -0.5300267 0.005812164 0.228885
vn -0.3870008 0.01801652 0.4280781
vn -0.3870008 0.01801652 0.4280781
vn -0.3870008 0.01801652 0.4280781
vn -0.3870008 0.01801652 0.4280781
vn -0.08154356 0.02916385 0.570848
vn -0.08154356 0.02916385 0.570848
vn -0.08154356 0.02916385 0.570848
vn -0.08154356 0.02916385 0.570848
vn 0.1260488 0.03118129 0.5625591
vn 0.1260488 0.03118129 0.5625591
vn 0.1260488 0.03118129 0.5625591
vn 0.1260488 0.03118129 0.5625591
vn 0.3173305 0.02916387 0.4814751
vn 0.3173305 0.02916387 0.4814751
vn 0.3173305 0.02916387 0.4814751
vn 0.3173305 0.02916387 0.4814751
vn 0.5326628 0.01801657 0.2220153
vn 0.5326628 0.01801657 0.2220153
vn 0.5326628 0.01801657 0.2220153
vn 0.5326628 0.01801657 0.2220153
vn 0.5770177 0.00581222 -0.01916294
vn 0.5770177 0.00581222 -0.01916294
vn 0.5770177 0.00581222 -0.01916294
vn 0.5770177 0.00581222 -0.01916294
vn 0.5633814 2.876691E-08 -0.126233
vn 0.5633814 2.876691E-08 -0.126233
vn 0.5633814 2.876691E-08 -0.126233
vn 0.5633814 2.876691E-08 -0.126233
vn 0.5300267 -0.005812164 -0.228885
vn 0.5300267 -0.005812164 -0.228885
vn 0.5300267 -0.005812164 -0.228885
vn 0.5300267 -0.005812164 -0.228885
vn 0.3870008 -0.01801652 -0.4280781
vn 0.3870008 -0.01801652 -0.4280781
vn 0.3870008 -0.01801652 -0.4280781
vn 0.3870008 -0.01801652 -0.4280781
vn 0.08154356 -0.02916385 -0.570848
vn 0.08154356 -0.02916385 -0.570848
vn 0.08154356 -0.02916385 -0.570848
vn 0.08154356 -0.02916385 -0.570848
vn -0.1260488 -0.03118129 -0.5625591
vn -0.1260488 -0.03118129 -0.5625591
vn -0.1260488 -0.03118129 -0.5625591
vn -0.1260488 -0.03118129 -0.5625591
vn -0.3173305 -0.02916387 -0.4814751
vn -0.3173305 -0.02916387 -0.4814751
vn -0.3173305 -0.02916387 -0.4814751
vn -0.3173305 -0.02916387 -0.4814751
vn -0.5326628 -0.01801657 -0.2220153
vn -0.5326628 -0.01801657 -0.2220153
vn -0.5326628 -0.01801657 -0.2220153
vn -0.5326628 -0.01801657 -0.2220153
vn -0.5770177 -0.00581222 0.01916294
vn -0.5770177 -0.00581222 0.01916294
vn -0.5770177 -0.00581222 0.01916294
vn -0.5770177 -0.00581222 0.01916294
vt 0.003281 0.05431201
vt 0.010639 0.026607
vt 0.030744 0.006325
vt 0.058208 -0.001099
vt 0.9417921 -0.001099
vt 0.969256 0.006325
vt 0.989361 0.026607
vt 0.9967191 0.05431201
vt 0.9967191 0.945688
vt 0.989361 0.973393
vt 0.969256 0.9936751
vt 0.9417921 1.001099
vt 0.058208 1.001099
vt 0.030744 0.9936751
vt 0.010639 0.973393
vt 0.003281 0.945688
vt 0.992758 0.05853401
vt 0.992758 0.9414661
vt 0.985458 0.968909
vt 0.9655141 0.988999
vt 0.9382691 0.9963521
vt 0.061731 0.9963521
vt 0.034486 0.988999
vt 0.014542 0.968909
vt 0.007242 0.9414661
vt 0.007242 0.05853401
vt 0.014542 0.031091
vt 0.034486 0.011001
vt 0.061731 0.003648
vt 0.9382691 0.003648
vt 0.9655141 0.011001
vt 0.985458 0.031091
vt 0 0.05529
vt 0 0.9447101
vt 0 0.9447101
vt 0 0.05529
vt 0.007407 0.027645
vt 0 0.05529
vt 0 0.05529
vt 0.007407 0.027645
vt 0.027645 0.007407
vt 0.007407 0.027645
vt 0.007407 0.027645
vt 0.027645 0.007407
vt 0.05529 0
vt 0.027645 0.007407
vt 0.027645 0.007407
vt 0.05529 0
vt 0.9447101 0
vt 0.05529 0
vt 0.05529 0
vt 0.9447101 0
vt 0.972355 0.007407
vt 0.9447101 0
vt 0.9447101 0
vt 0.972355 0.007407
vt 0.9925931 0.027645
vt 0.972355 0.007407
vt 0.972355 0.007407
vt 0.9925931 0.027645
vt 1 0.05529
vt 0.9925931 0.027645
vt 0.9925931 0.027645
vt 1 0.05529
vt 1 0.9447101
vt 1 0.05529
vt 1 0.05529
vt 1 0.9447101
vt 0.9925931 0.972355
vt 1 0.9447101
vt 1 0.9447101
vt 0.9925931 0.972355
vt 0.972355 0.9925931
vt 0.9925931 0.972355
vt 0.9925931 0.972355
vt 0.972355 0.9925931
vt 0.9447101 1
vt 0.972355 0.9925931
vt 0.972355 0.9925931
vt 0.9447101 1
vt 0.05529 1
vt 0.9447101 1
vt 0.9447101 1
vt 0.05529 1
vt 0.027645 0.9925931
vt 0.05529 1
vt 0.05529 1
vt 0.027645 0.9925931
vt 0.007407 0.972355
vt 0.027645 0.9925931
vt 0.027645 0.9925931
vt 0.007407 0.972355
vt 0 0.9447101
vt 0.007407 0.972355
vt 0.007407 0.972355
vt 0 0.9447101
usemtl FRONT_VIEW.004 (Instance)
f 1/1/1 15/15/15 16/16/16
f 1/1/1 14/14/14 15/15/15
f 1/1/1 13/13/13 14/14/14
f 1/1/1 12/12/12 13/13/13
f 1/1/1 11/11/11 12/12/12
f 1/1/1 10/10/10 11/11/11
f 1/1/1 9/9/9 10/10/10
f 1/1/1 8/8/8 9/9/9
f 1/1/1 7/7/7 8/8/8
f 1/1/1 6/6/6 7/7/7
f 1/1/1 5/5/5 6/6/6
f 1/1/1 4/4/4 5/5/5
f 1/1/1 3/3/3 4/4/4
f 1/1/1 2/2/2 3/3/3
f 17/17/17 31/31/31 32/32/32
f 17/17/17 30/30/30 31/31/31
f 17/17/17 29/29/29 30/30/30
f 17/17/17 28/28/28 29/29/29
f 17/17/17 27/27/27 28/28/28
f 17/17/17 26/26/26 27/27/27
f 17/17/17 25/25/25 26/26/26
f 17/17/17 24/24/24 25/25/25
f 17/17/17 23/23/23 24/24/24
f 17/17/17 22/22/22 23/23/23
f 17/17/17 21/21/21 22/22/22
f 17/17/17 20/20/20 21/21/21
f 17/17/17 19/19/19 20/20/20
f 17/17/17 18/18/18 19/19/19
f 33/33/33 34/34/34 35/35/35
f 35/35/35 36/36/36 33/33/33
f 37/37/37 38/38/38 39/39/39
f 39/39/39 40/40/40 37/37/37
f 41/41/41 42/42/42 43/43/43
f 43/43/43 44/44/44 41/41/41
f 45/45/45 46/46/46 47/47/47
f 47/47/47 48/48/48 45/45/45
f 49/49/49 50/50/50 51/51/51
f 51/51/51 52/52/52 49/49/49
f 53/53/53 54/54/54 55/55/55
f 55/55/55 56/56/56 53/53/53
f 57/57/57 58/58/58 59/59/59
f 59/59/59 60/60/60 57/57/57
f 61/61/61 62/62/62 63/63/63
f 63/63/63 64/64/64 61/61/61
f 65/65/65 66/66/66 67/67/67
f 67/67/67 68/68/68 65/65/65
f 69/69/69 70/70/70 71/71/71
f 71/71/71 72/72/72 69/69/69
f 73/73/73 74/74/74 75/75/75
f 75/75/75 76/76/76 73/73/73
f 77/77/77 78/78/78 79/79/79
f 79/79/79 80/80/80 77/77/77
f 81/81/81 82/82/82 83/83/83
f 83/83/83 84/84/84 81/81/81
f 85/85/85 86/86/86 87/87/87
f 87/87/87 88/88/88 85/85/85
f 89/89/89 90/90/90 91/91/91
f 91/91/91 92/92/92 89/89/89
f 93/93/93 94/94/94 95/95/95
f 95/95/95 96/96/96 93/93/93
g Chandra.001_Plane.005
v -0.5350451 -0.01128592 1.05122
v -0.5271686 -0.01023152 1.069433
v -0.5141745 -0.009459645 1.081147
v -0.4995444 -0.009177116 1.083222
v -0.06559375 -0.009177093 0.9859895
v -0.05324787 -0.009459623 0.97787
v -0.04649428 -0.0102315 0.9617318
v -0.04714254 -0.0112859 0.9418989
v -0.184276 -0.04520924 0.3298689
v -0.1921524 -0.04626364 0.3116556
v -0.2051466 -0.04703552 0.2999422
v -0.2197767 -0.04731805 0.2978671
v -0.6537273 -0.04731807 0.3950995
v -0.6660732 -0.04703554 0.4032189
v -0.6728268 -0.04626366 0.4193571
v -0.6721785 -0.04520927 0.4391899
v -0.5350284 -0.01269627 1.051294
v -0.6721618 -0.04661961 0.4392643
v -0.6728101 -0.04767401 0.4194315
v -0.6660565 -0.04844588 0.4032934
v -0.6537106 -0.04872841 0.3951739
v -0.21976 -0.04872839 0.2979415
v -0.2051299 -0.04844586 0.3000166
v -0.1921358 -0.04767399 0.3117301
v -0.1842593 -0.04661959 0.3299433
v -0.04712586 -0.01269624 0.9419734
v -0.0464776 -0.01164184 0.9618062
v -0.05323119 -0.01086997 0.9779444
v -0.06557707 -0.01058744 0.9860638
v -0.4995277 -0.01058746 1.083296
v -0.5141578 -0.01086999 1.081221
v -0.5271519 -0.01164186 1.069508
v -0.5350451 -0.01128592 1.05122
v -0.6721785 -0.04520927 0.4391899
v -0.6721618 -0.04661961 0.4392643
v -0.5350284 -0.01269627 1.051294
v -0.5271686 -0.01023152 1.069433
v -0.5350451 -0.01128592 1.05122
v -0.5350284 -0.01269627 1.051294
v -0.5271519 -0.01164186 1.069508
v -0.5141745 -0.009459645 1.081147
v -0.5271686 -0.01023152 1.069433
v -0.5271519 -0.01164186 1.069508
v -0.5141578 -0.01086999 1.081221
v -0.4995444 -0.009177116 1.083222
v -0.5141745 -0.009459645 1.081147
v -0.5141578 -0.01086999 1.081221
v -0.4995277 -0.01058746 1.083296
v -0.06559375 -0.009177093 0.9859895
v -0.4995444 -0.009177116 1.083222
v -0.4995277 -0.01058746 1.083296
v -0.06557707 -0.01058744 0.9860638
v -0.05324787 -0.009459623 0.97787
v -0.06559375 -0.009177093 0.9859895
v -0.06557707 -0.01058744 0.9860638
v -0.05323119 -0.01086997 0.9779444
v -0.04649428 -0.0102315 0.9617318
v -0.05324787 -0.009459623 0.97787
v -0.05323119 -0.01086997 0.9779444
v -0.0464776 -0.01164184 0.9618062
v -0.04714254 -0.0112859 0.9418989
v -0.04649428 -0.0102315 0.9617318
v -0.0464776 -0.01164184 0.9618062
v -0.04712586 -0.01269624 0.9419734
v -0.184276 -0.04520924 0.3298689
v -0.04714254 -0.0112859 0.9418989
v -0.04712586 -0.01269624 0.9419734
v -0.1842593 -0.04661959 0.3299433
v -0.1921524 -0.04626364 0.3116556
v -0.184276 -0.04520924 0.3298689
v -0.1842593 -0.04661959 0.3299433
v -0.1921358 -0.04767399 0.3117301
v -0.2051466 -0.04703552 0.2999422
v -0.1921524 -0.04626364 0.3116556
v -0.1921358 -0.04767399 0.3117301
v -0.2051299 -0.04844586 0.3000166
v -0.2197767 -0.04731805 0.2978671
v -0.2051466 -0.04703552 0.2999422
v -0.2051299 -0.04844586 0.3000166
v -0.21976 -0.04872839 0.2979415
v -0.6537273 -0.04731807 0.3950995
v -0.2197767 -0.04731805 0.2978671
v -0.21976 -0.04872839 0.2979415
v -0.6537106 -0.04872841 0.3951739
v -0.6660732 -0.04703554 0.4032189
v -0.6537273 -0.04731807 0.3950995
v -0.6537106 -0.04872841 0.3951739
v -0.6660565 -0.04844588 0.4032934
v -0.6728268 -0.04626366 0.4193571
v -0.6660732 -0.04703554 0.4032189
v -0.6660565 -0.04844588 0.4032934
v -0.6728101 -0.04767401 0.4194315
v -0.6721785 -0.04520927 0.4391899
v -0.6728268 -0.04626366 0.4193571
v -0.6728101 -0.04767401 0.4194315
v -0.6721618 -0.04661961 0.4392643
vn -0.006817568 0.5765076 -0.03042685
vn -0.006817568 0.5765076 -0.03042685
vn -0.006817568 0.5765076 -0.03042685
vn -0.006817568 0.5765076 -0.03042685
vn -0.006817568 0.5765076 -0.03042685
vn -0.006817568 0.5765076 -0.03042685
vn -0.006817568 0.5765076 -0.03042685
vn -0.006817568 0.5765076 -0.03042685
vn -0.006817568 0.5765076 -0.03042685
vn -0.006817568 0.5765076 -0.03042685
vn -0.006817568 0.5765076 -0.03042685
vn -0.006817568 0.5765076 -0.03042685
vn -0.006817568 0.5765076 -0.03042685
vn -0.006817568 0.5765076 -0.03042685
vn -0.006817568 0.5765076 -0.03042685
vn -0.006817568 0.5765076 -0.03042685
vn 0.006817568 -0.5765076 0.03042685
vn 0.006817568 -0.5765076 0.03042685
vn 0.006817568 -0.5765076 0.03042685
vn 0.006817568 -0.5765076 0.03042685
vn 0.006817568 -0.5765076 0.03042685
vn 0.006817568 -0.5765076 0.03042685
vn 0.006817568 -0.5765076 0.03042685
vn 0.006817568 -0.5765076 0.03042685
vn 0.006817568 -0.5765076 0.03042685
vn 0.006817568 -0.5765076 0.03042685
vn 0.006817568 -0.5765076 0.03042685
vn 0.006817568 -0.5765076 0.03042685
vn 0.006817568 -0.5765076 0.03042685
vn 0.006817568 -0.5765076 0.03042685
vn 0.006817568 -0.5765076 0.03042685
vn 0.006817568 -0.5765076 0.03042685
vn -0.5633814 -2.876691E-08 0.126233
vn -0.5633814 -2.876691E-08 0.126233
vn -0.5633814 -2.876691E-08 0.126233
vn -0.5633814 -2.876691E-08 0.126233
vn -0.5300267 0.005812164 0.228885
vn -0.5300267 0.005812164 0.228885
vn -0.5300267 0.005812164 0.228885
vn -0.5300267 0.005812164 0.228885
vn -0.3870008 0.01801652 0.4280781
vn -0.3870008 0.01801652 0.4280781
vn -0.3870008 0.01801652 0.4280781
vn -0.3870008 0.01801652 0.4280781
vn -0.08154356 0.02916385 0.570848
vn -0.08154356 0.02916385 0.570848
vn -0.08154356 0.02916385 0.570848
vn -0.08154356 0.02916385 0.570848
vn 0.1260488 0.03118129 0.5625591
vn 0.1260488 0.03118129 0.5625591
vn 0.1260488 0.03118129 0.5625591
vn 0.1260488 0.03118129 0.5625591
vn 0.3173305 0.02916387 0.4814751
vn 0.3173305 0.02916387 0.4814751
vn 0.3173305 0.02916387 0.4814751
vn 0.3173305 0.02916387 0.4814751
vn 0.5326628 0.01801657 0.2220153
vn 0.5326628 0.01801657 0.2220153
vn 0.5326628 0.01801657 0.2220153
vn 0.5326628 0.01801657 0.2220153
vn 0.5770177 0.00581222 -0.01916294
vn 0.5770177 0.00581222 -0.01916294
vn 0.5770177 0.00581222 -0.01916294
vn 0.5770177 0.00581222 -0.01916294
vn 0.5633814 2.876691E-08 -0.126233
vn 0.5633814 2.876691E-08 -0.126233
vn 0.5633814 2.876691E-08 -0.126233
vn 0.5633814 2.876691E-08 -0.126233
vn 0.5300267 -0.005812164 -0.228885
vn 0.5300267 -0.005812164 -0.228885
vn 0.5300267 -0.005812164 -0.228885
vn 0.5300267 -0.005812164 -0.228885
vn 0.3870008 -0.01801652 -0.4280781
vn 0.3870008 -0.01801652 -0.4280781
vn 0.3870008 -0.01801652 -0.4280781
vn 0.3870008 -0.01801652 -0.4280781
vn 0.08154356 -0.02916385 -0.570848
vn 0.08154356 -0.02916385 -0.570848
vn 0.08154356 -0.02916385 -0.570848
vn 0.08154356 -0.02916385 -0.570848
vn -0.1260488 -0.03118129 -0.5625591
vn -0.1260488 -0.03118129 -0.5625591
vn -0.1260488 -0.03118129 -0.5625591
vn -0.1260488 -0.03118129 -0.5625591
vn -0.3173305 -0.02916387 -0.4814751
vn -0.3173305 -0.02916387 -0.4814751
vn -0.3173305 -0.02916387 -0.4814751
vn -0.3173305 -0.02916387 -0.4814751
vn -0.5326628 -0.01801657 -0.2220153
vn -0.5326628 -0.01801657 -0.2220153
vn -0.5326628 -0.01801657 -0.2220153
vn -0.5326628 -0.01801657 -0.2220153
vn -0.5770177 -0.00581222 0.01916294
vn -0.5770177 -0.00581222 0.01916294
vn -0.5770177 -0.00581222 0.01916294
vn -0.5770177 -0.00581222 0.01916294
vt 0.003281 0.05431201
vt 0.010639 0.026607
vt 0.030744 0.006325
vt 0.058208 -0.001099
vt 0.9417921 -0.001099
vt 0.969256 0.006325
vt 0.989361 0.026607
vt 0.9967191 0.05431201
vt 0.9967191 0.945688
vt 0.989361 0.973393
vt 0.969256 0.9936751
vt 0.9417921 1.001099
vt 0.058208 1.001099
vt 0.030744 0.9936751
vt 0.010639 0.973393
vt 0.003281 0.945688
vt 0.992758 0.05853401
vt 0.992758 0.9414661
vt 0.985458 0.968909
vt 0.9655141 0.988999
vt 0.9382691 0.9963521
vt 0.061731 0.9963521
vt 0.034486 0.988999
vt 0.014542 0.968909
vt 0.007242 0.9414661
vt 0.007242 0.05853401
vt 0.014542 0.031091
vt 0.034486 0.011001
vt 0.061731 0.003648
vt 0.9382691 0.003648
vt 0.9655141 0.011001
vt 0.985458 0.031091
vt 0 0.05529
vt 0 0.9447101
vt 0 0.9447101
vt 0 0.05529
vt 0.007407 0.027645
vt 0 0.05529
vt 0 0.05529
vt 0.007407 0.027645
vt 0.027645 0.007407
vt 0.007407 0.027645
vt 0.007407 0.027645
vt 0.027645 0.007407
vt 0.05529 0
vt 0.027645 0.007407
vt 0.027645 0.007407
vt 0.05529 0
vt 0.9447101 0
vt 0.05529 0
vt 0.05529 0
vt 0.9447101 0
vt 0.972355 0.007407
vt 0.9447101 0
vt 0.9447101 0
vt 0.972355 0.007407
vt 0.9925931 0.027645
vt 0.972355 0.007407
vt 0.972355 0.007407
vt 0.9925931 0.027645
vt 1 0.05529
vt 0.9925931 0.027645
vt 0.9925931 0.027645
vt 1 0.05529
vt 1 0.9447101
vt 1 0.05529
vt 1 0.05529
vt 1 0.9447101
vt 0.9925931 0.972355
vt 1 0.9447101
vt 1 0.9447101
vt 0.9925931 0.972355
vt 0.972355 0.9925931
vt 0.9925931 0.972355
vt 0.9925931 0.972355
vt 0.972355 0.9925931
vt 0.9447101 1
vt 0.972355 0.9925931
vt 0.972355 0.9925931
vt 0.9447101 1
vt 0.05529 1
vt 0.9447101 1
vt 0.9447101 1
vt 0.05529 1
vt 0.027645 0.9925931
vt 0.05529 1
vt 0.05529 1
vt 0.027645 0.9925931
vt 0.007407 0.972355
vt 0.027645 0.9925931
vt 0.027645 0.9925931
vt 0.007407 0.972355
vt 0 0.9447101
vt 0.007407 0.972355
vt 0.007407 0.972355
vt 0 0.9447101
usemtl BACK_VIEW.005 (Instance)
f 97/97/97 111/111/111 112/112/112
f 97/97/97 110/110/110 111/111/111
f 97/97/97 109/109/109 110/110/110
f 97/97/97 108/108/108 109/109/109
f 97/97/97 107/107/107 108/108/108
f 97/97/97 106/106/106 107/107/107
f 97/97/97 105/105/105 106/106/106
f 97/97/97 104/104/104 105/105/105
f 97/97/97 103/103/103 104/104/104
f 97/97/97 102/102/102 103/103/103
f 97/97/97 101/101/101 102/102/102
f 97/97/97 100/100/100 101/101/101
f 97/97/97 99/99/99 100/100/100
f 97/97/97 98/98/98 99/99/99
f 113/113/113 127/127/127 128/128/128
f 113/113/113 126/126/126 127/127/127
f 113/113/113 125/125/125 126/126/126
f 113/113/113 124/124/124 125/125/125
f 113/113/113 123/123/123 124/124/124
f 113/113/113 122/122/122 123/123/123
f 113/113/113 121/121/121 122/122/122
f 113/113/113 120/120/120 121/121/121
f 113/113/113 119/119/119 120/120/120
f 113/113/113 118/118/118 119/119/119
f 113/113/113 117/117/117 118/118/118
f 113/113/113 116/116/116 117/117/117
f 113/113/113 115/115/115 116/116/116
f 113/113/113 114/114/114 115/115/115
f 129/129/129 130/130/130 131/131/131
f 131/131/131 132/132/132 129/129/129
f 133/133/133 134/134/134 135/135/135
f 135/135/135 136/136/136 133/133/133
f 137/137/137 138/138/138 139/139/139
f 139/139/139 140/140/140 137/137/137
f 141/141/141 142/142/142 143/143/143
f 143/143/143 144/144/144 141/141/141
f 145/145/145 146/146/146 147/147/147
f 147/147/147 148/148/148 145/145/145
f 149/149/149 150/150/150 151/151/151
f 151/151/151 152/152/152 149/149/149
f 153/153/153 154/154/154 155/155/155
f 155/155/155 156/156/156 153/153/153
f 157/157/157 158/158/158 159/159/159
f 159/159/159 160/160/160 157/157/157
f 161/161/161 162/162/162 163/163/163
f 163/163/163 164/164/164 161/161/161
f 165/165/165 166/166/166 167/167/167
f 167/167/167 168/168/168 165/165/165
f 169/169/169 170/170/170 171/171/171
f 171/171/171 172/172/172 169/169/169
f 173/173/173 174/174/174 175/175/175
f 175/175/175 176/176/176 173/173/173
f 177/177/177 178/178/178 179/179/179
f 179/179/179 180/180/180 177/177/177
f 181/181/181 182/182/182 183/183/183
f 183/183/183 184/184/184 181/181/181
f 185/185/185 186/186/186 187/187/187
f 187/187/187 188/188/188 185/185/185
f 189/189/189 190/190/190 191/191/191
f 191/191/191 192/192/192 189/189/189
