# Export of MainScene
# from Aaro4130 OBJ Exporter v2.0
mtllib Movable.mtl
g Movable
v -1.034273 0.3058805 1.76499
v -0.8342727 0.3058813 1.764999
v -1.034274 0.5058805 1.765106
v -0.8342736 0.5058813 1.765115
v -1.034264 0.5059965 1.565106
v -0.8342642 0.5059974 1.565115
v -1.034263 0.3059965 1.56499
v -0.8342634 0.3059974 1.564999
v -1.034274 0.5058805 1.765106
v -0.8342736 0.5058813 1.765115
v -1.034264 0.5059965 1.565106
v -0.8342642 0.5059974 1.565115
v -1.034263 0.3059965 1.56499
v -1.034273 0.3058805 1.76499
v -0.8342727 0.3058813 1.764999
v -0.8342634 0.3059974 1.564999
v -0.8342727 0.3058813 1.764999
v -0.8342736 0.5058813 1.765115
v -0.8342642 0.5059974 1.565115
v -0.8342634 0.3059974 1.564999
v -1.034263 0.3059965 1.56499
v -1.034264 0.5059965 1.565106
v -1.034274 0.5058805 1.765106
v -1.034273 0.3058805 1.76499
vn -2.705581E-05 -0.0003349866 0.5773501
vn -2.705581E-05 -0.0003349866 0.5773501
vn -2.705581E-05 -0.0003349866 0.5773501
vn -2.705581E-05 -0.0003349866 0.5773501
vn -2.453682E-06 0.5773501 0.0003349865
vn -2.453682E-06 0.5773501 0.0003349865
vn 2.705581E-05 0.0003349866 -0.5773501
vn 2.705581E-05 0.0003349866 -0.5773501
vn -2.453682E-06 0.5773501 0.0003349865
vn -2.453682E-06 0.5773501 0.0003349865
vn 2.705581E-05 0.0003349866 -0.5773501
vn 2.705581E-05 0.0003349866 -0.5773501
vn 2.453682E-06 -0.5773501 -0.0003349865
vn 2.453682E-06 -0.5773501 -0.0003349865
vn 2.453682E-06 -0.5773501 -0.0003349865
vn 2.453682E-06 -0.5773501 -0.0003349865
vn 0.5773503 2.437984E-06 2.705723E-05
vn 0.5773503 2.437984E-06 2.705723E-05
vn 0.5773503 2.437984E-06 2.705723E-05
vn 0.5773503 2.437984E-06 2.705723E-05
vn -0.5773503 -2.437984E-06 -2.705723E-05
vn -0.5773503 -2.437984E-06 -2.705723E-05
vn -0.5773503 -2.437984E-06 -2.705723E-05
vn -0.5773503 -2.437984E-06 -2.705723E-05
vt 0 0
vt 1 0
vt 0 1
vt 1 1
vt 0 1
vt 1 1
vt 0 1
vt 1 1
vt 0 0
vt 1 0
vt 0 0
vt 1 0
vt 0 0
vt 0 1
vt 1 1
vt 1 0
vt 0 0
vt 0 1
vt 1 1
vt 1 0
vt 0 0
vt 0 1
vt 1 1
vt 1 0
usemtl DebugFace
f 4/4/4 3/3/3 1/1/1
f 2/2/2 4/4/4 1/1/1
f 6/6/6 5/5/5 9/9/9
f 10/10/10 6/6/6 9/9/9
f 8/8/8 7/7/7 11/11/11
f 12/12/12 8/8/8 11/11/11
f 15/15/15 14/14/14 13/13/13
f 16/16/16 15/15/15 13/13/13
f 19/19/19 18/18/18 17/17/17
f 20/20/20 19/19/19 17/17/17
f 23/23/23 22/22/22 21/21/21
f 24/24/24 23/23/23 21/21/21
g Static
v -1.013572 0.1021098 1.630971
v -0.8135856 0.1017338 1.628671
v -1.01353 0.3000452 1.602308
v -0.8135431 0.2996692 1.600008
v -1.01586 0.2713844 1.404386
v -0.8158732 0.2710083 1.402086
v -1.015902 0.07344896 1.433049
v -0.8159157 0.07307295 1.430749
v -1.01353 0.3000452 1.602308
v -0.8135431 0.2996692 1.600008
v -1.01586 0.2713844 1.404386
v -0.8158732 0.2710083 1.402086
v -1.015902 0.07344896 1.433049
v -1.013572 0.1021098 1.630971
v -0.8135856 0.1017338 1.628671
v -0.8159157 0.07307295 1.430749
v -0.8135856 0.1017338 1.628671
v -0.8135431 0.2996692 1.600008
v -0.8158732 0.2710083 1.402086
v -0.8159157 0.07307295 1.430749
v -1.015902 0.07344896 1.433049
v -1.01586 0.2713844 1.404386
v -1.01353 0.3000452 1.602308
v -1.013572 0.1021098 1.630971
vn 0.006726369 0.08273682 0.5713517
vn 0.006726369 0.08273682 0.5713517
vn 0.006726369 0.08273682 0.5713517
vn 0.006726369 0.08273682 0.5713517
vn 0.0001227488 0.5713902 -0.08274385
vn 0.0001227488 0.5713902 -0.08274385
vn -0.006726369 -0.08273682 -0.5713517
vn -0.006726369 -0.08273682 -0.5713517
vn 0.0001227488 0.5713902 -0.08274385
vn 0.0001227488 0.5713902 -0.08274385
vn -0.006726369 -0.08273682 -0.5713517
vn -0.006726369 -0.08273682 -0.5713517
vn -0.0001227488 -0.5713902 0.08274385
vn -0.0001227488 -0.5713902 0.08274385
vn -0.0001227488 -0.5713902 0.08274385
vn -0.0001227488 -0.5713902 0.08274385
vn 0.577311 -0.001085473 -0.00663934
vn 0.577311 -0.001085473 -0.00663934
vn 0.577311 -0.001085473 -0.00663934
vn 0.577311 -0.001085473 -0.00663934
vn -0.577311 0.001085473 0.00663934
vn -0.577311 0.001085473 0.00663934
vn -0.577311 0.001085473 0.00663934
vn -0.577311 0.001085473 0.00663934
vt 0 0
vt 1 0
vt 0 1
vt 1 1
vt 0 1
vt 1 1
vt 0 1
vt 1 1
vt 0 0
vt 1 0
vt 0 0
vt 1 0
vt 0 0
vt 0 1
vt 1 1
vt 1 0
vt 0 0
vt 0 1
vt 1 1
vt 1 0
vt 0 0
vt 0 1
vt 1 1
vt 1 0
usemtl FRONT_VIEW.013
f 28/28/28 27/27/27 25/25/25
f 26/26/26 28/28/28 25/25/25
f 30/30/30 29/29/29 33/33/33
f 34/34/34 30/30/30 33/33/33
f 32/32/32 31/31/31 35/35/35
f 36/36/36 32/32/32 35/35/35
f 39/39/39 38/38/38 37/37/37
f 40/40/40 39/39/39 37/37/37
f 43/43/43 42/42/42 41/41/41
f 44/44/44 43/43/43 41/41/41
f 47/47/47 46/46/46 45/45/45
f 48/48/48 47/47/47 45/45/45
g Child
v -0.8642336 0.08827195 1.65534
v -0.6642335 0.08827195 1.65534
v -0.8642336 0.288272 1.65534
v -0.6642335 0.288272 1.65534
v -0.8642336 0.288272 1.45534
v -0.6642335 0.288272 1.45534
v -0.8642336 0.08827195 1.45534
v -0.6642335 0.08827195 1.45534
v -0.8642336 0.288272 1.65534
v -0.6642335 0.288272 1.65534
v -0.8642336 0.288272 1.45534
v -0.6642335 0.288272 1.45534
v -0.8642336 0.08827195 1.45534
v -0.8642336 0.08827195 1.65534
v -0.6642335 0.08827195 1.65534
v -0.6642335 0.08827195 1.45534
v -0.6642335 0.08827195 1.65534
v -0.6642335 0.288272 1.65534
v -0.6642335 0.288272 1.45534
v -0.6642335 0.08827195 1.45534
v -0.8642336 0.08827195 1.45534
v -0.8642336 0.288272 1.45534
v -0.8642336 0.288272 1.65534
v -0.8642336 0.08827195 1.65534
vn 0 0 0.5773503
vn 0 0 0.5773503
vn 0 0 0.5773503
vn 0 0 0.5773503
vn 1.297359E-13 0.5773503 0
vn 1.297359E-13 0.5773503 0
vn 0 0 -0.5773503
vn 0 0 -0.5773503
vn 1.297359E-13 0.5773503 0
vn 1.297359E-13 0.5773503 0
vn 0 0 -0.5773503
vn 0 0 -0.5773503
vn -1.297359E-13 -0.5773503 0
vn -1.297359E-13 -0.5773503 0
vn -1.297359E-13 -0.5773503 0
vn -1.297359E-13 -0.5773503 0
vn 0.5773503 -1.297359E-13 0
vn 0.5773503 -1.297359E-13 0
vn 0.5773503 -1.297359E-13 0
vn 0.5773503 -1.297359E-13 0
vn -0.5773503 1.297359E-13 0
vn -0.5773503 1.297359E-13 0
vn -0.5773503 1.297359E-13 0
vn -0.5773503 1.297359E-13 0
vt 0 0
vt 1 0
vt 0 1
vt 1 1
vt 0 1
vt 1 1
vt 0 1
vt 1 1
vt 0 0
vt 1 0
vt 0 0
vt 1 0
vt 0 0
vt 0 1
vt 1 1
vt 1 0
vt 0 0
vt 0 1
vt 1 1
vt 1 0
vt 0 0
vt 0 1
vt 1 1
vt 1 0
usemtl DebugFace
f 52/52/52 51/51/51 49/49/49
f 50/50/50 52/52/52 49/49/49
f 54/54/54 53/53/53 57/57/57
f 58/58/58 54/54/54 57/57/57
f 56/56/56 55/55/55 59/59/59
f 60/60/60 56/56/56 59/59/59
f 63/63/63 62/62/62 61/61/61
f 64/64/64 63/63/63 61/61/61
f 67/67/67 66/66/66 65/65/65
f 68/68/68 67/67/67 65/65/65
f 71/71/71 70/70/70 69/69/69
f 72/72/72 71/71/71 69/69/69
g Leader
v -0.9736595 0.2667843 1.555393
v -0.7736595 0.2667843 1.555393
v -0.9736595 0.4667843 1.555393
v -0.7736595 0.4667843 1.555393
v -0.9736595 0.4667843 1.355393
v -0.7736595 0.4667843 1.355393
v -0.9736595 0.2667843 1.355393
v -0.7736595 0.2667843 1.355393
v -0.9736595 0.4667843 1.555393
v -0.7736595 0.4667843 1.555393
v -0.9736595 0.4667843 1.355393
v -0.7736595 0.4667843 1.355393
v -0.9736595 0.2667843 1.355393
v -0.9736595 0.2667843 1.555393
v -0.7736595 0.2667843 1.555393
v -0.7736595 0.2667843 1.355393
v -0.7736595 0.2667843 1.555393
v -0.7736595 0.4667843 1.555393
v -0.7736595 0.4667843 1.355393
v -0.7736595 0.2667843 1.355393
v -0.9736595 0.2667843 1.355393
v -0.9736595 0.4667843 1.355393
v -0.9736595 0.4667843 1.555393
v -0.9736595 0.2667843 1.555393
vn 0 0 0.5773503
vn 0 0 0.5773503
vn 0 0 0.5773503
vn 0 0 0.5773503
vn 1.297359E-13 0.5773503 0
vn 1.297359E-13 0.5773503 0
vn 0 0 -0.5773503
vn 0 0 -0.5773503
vn 1.297359E-13 0.5773503 0
vn 1.297359E-13 0.5773503 0
vn 0 0 -0.5773503
vn 0 0 -0.5773503
vn -1.297359E-13 -0.5773503 0
vn -1.297359E-13 -0.5773503 0
vn -1.297359E-13 -0.5773503 0
vn -1.297359E-13 -0.5773503 0
vn 0.5773503 -1.297359E-13 0
vn 0.5773503 -1.297359E-13 0
vn 0.5773503 -1.297359E-13 0
vn 0.5773503 -1.297359E-13 0
vn -0.5773503 1.297359E-13 0
vn -0.5773503 1.297359E-13 0
vn -0.5773503 1.297359E-13 0
vn -0.5773503 1.297359E-13 0
vt 0 0
vt 1 0
vt 0 1
vt 1 1
vt 0 1
vt 1 1
vt 0 1
vt 1 1
vt 0 0
vt 1 0
vt 0 0
vt 1 0
vt 0 0
vt 0 1
vt 1 1
vt 1 0
vt 0 0
vt 0 1
vt 1 1
vt 1 0
vt 0 0
vt 0 1
vt 1 1
vt 1 0
usemtl FRONT_VIEW.013
f 76/76/76 75/75/75 73/73/73
f 74/74/74 76/76/76 73/73/73
f 78/78/78 77/77/77 81/81/81
f 82/82/82 78/78/78 81/81/81
f 80/80/80 79/79/79 83/83/83
f 84/84/84 80/80/80 83/83/83
f 87/87/87 86/86/86 85/85/85
f 88/88/88 87/87/87 85/85/85
f 91/91/91 90/90/90 89/89/89
f 92/92/92 91/91/91 89/89/89
f 95/95/95 94/94/94 93/93/93
f 96/96/96 95/95/95 93/93/93
g Movable
v -1.034273 0.3058805 1.76499
v -0.8342727 0.3058813 1.764999
v -1.034274 0.5058805 1.765106
v -0.8342736 0.5058813 1.765115
v -1.034264 0.5059965 1.565106
v -0.8342642 0.5059974 1.565115
v -1.034263 0.3059965 1.56499
v -0.8342634 0.3059974 1.564999
v -1.034274 0.5058805 1.765106
v -0.8342736 0.5058813 1.765115
v -1.034264 0.5059965 1.565106
v -0.8342642 0.5059974 1.565115
v -1.034263 0.3059965 1.56499
v -1.034273 0.3058805 1.76499
v -0.8342727 0.3058813 1.764999
v -0.8342634 0.3059974 1.564999
v -0.8342727 0.3058813 1.764999
v -0.8342736 0.5058813 1.765115
v -0.8342642 0.5059974 1.565115
v -0.8342634 0.3059974 1.564999
v -1.034263 0.3059965 1.56499
v -1.034264 0.5059965 1.565106
v -1.034274 0.5058805 1.765106
v -1.034273 0.3058805 1.76499
vn -2.705581E-05 -0.0003349866 0.5773501
vn -2.705581E-05 -0.0003349866 0.5773501
vn -2.705581E-05 -0.0003349866 0.5773501
vn -2.705581E-05 -0.0003349866 0.5773501
vn -2.453682E-06 0.5773501 0.0003349865
vn -2.453682E-06 0.5773501 0.0003349865
vn 2.705581E-05 0.0003349866 -0.5773501
vn 2.705581E-05 0.0003349866 -0.5773501
vn -2.453682E-06 0.5773501 0.0003349865
vn -2.453682E-06 0.5773501 0.0003349865
vn 2.705581E-05 0.0003349866 -0.5773501
vn 2.705581E-05 0.0003349866 -0.5773501
vn 2.453682E-06 -0.5773501 -0.0003349865
vn 2.453682E-06 -0.5773501 -0.0003349865
vn 2.453682E-06 -0.5773501 -0.0003349865
vn 2.453682E-06 -0.5773501 -0.0003349865
vn 0.5773503 2.437984E-06 2.705723E-05
vn 0.5773503 2.437984E-06 2.705723E-05
vn 0.5773503 2.437984E-06 2.705723E-05
vn 0.5773503 2.437984E-06 2.705723E-05
vn -0.5773503 -2.437984E-06 -2.705723E-05
vn -0.5773503 -2.437984E-06 -2.705723E-05
vn -0.5773503 -2.437984E-06 -2.705723E-05
vn -0.5773503 -2.437984E-06 -2.705723E-05
vt 0 0
vt 1 0
vt 0 1
vt 1 1
vt 0 1
vt 1 1
vt 0 1
vt 1 1
vt 0 0
vt 1 0
vt 0 0
vt 1 0
vt 0 0
vt 0 1
vt 1 1
vt 1 0
vt 0 0
vt 0 1
vt 1 1
vt 1 0
vt 0 0
vt 0 1
vt 1 1
vt 1 0
usemtl DebugFace
f 100/100/100 99/99/99 97/97/97
f 98/98/98 100/100/100 97/97/97
f 102/102/102 101/101/101 105/105/105
f 106/106/106 102/102/102 105/105/105
f 104/104/104 103/103/103 107/107/107
f 108/108/108 104/104/104 107/107/107
f 111/111/111 110/110/110 109/109/109
f 112/112/112 111/111/111 109/109/109
f 115/115/115 114/114/114 113/113/113
f 116/116/116 115/115/115 113/113/113
f 119/119/119 118/118/118 117/117/117
f 120/120/120 119/119/119 117/117/117
